<?xml version="1.0" encoding="utf-8"?>
<!-- Generator: Adobe Illustrator 23.0.6, SVG Export Plug-In . SVG Version: 6.00 Build 0)  -->
<svg version="1.1" id="Calque_1" xmlns="http://www.w3.org/2000/svg"
     x="0px" y="0px"
     viewBox="0 0 2834.65 1178.33"
     style="enable-background:new 0 0 2834.65 1178.33;" xml:space="preserve">
<style type="text/css">
	.st0{fill:#009BAC;}
	.st1{fill:#4C5356;}
	.st2{fill:#FFFFFF;}
</style>
    <g>
	<path class="st0" d="M47.78,1112.8h14.66c8.32,0,15.9-0.12,19.56-0.37v9.29c-3.67-0.25-11.25-0.5-19.56-0.5H37.4
		c0.26-6.71,0.5-16.36,0.5-21.87v-39.97c0-8.43-0.24-18.2-0.5-21.87h10.75c-0.11,3.66-0.37,13.44-0.37,21.87V1112.8z"/>
        <path class="st0" d="M210.88,1121.22c-1.23-3.55-3.17-8.3-5.51-13.79l-6.11-14.55h-31.88l-5.99,14.3
		c-2.67,6.48-4.4,10.74-5.35,14.04h-11.25c2.81-5.24,5.98-11.72,8.78-18.57l28.85-66.71h2.81l29.19,66.71
		c3.06,6.85,6.36,13.57,9.17,18.57H210.88z M183.26,1053.9l-12.58,30.79h25.17L183.26,1053.9z"/>
        <path class="st0" d="M433.24,1118.55c-7.46,2.44-12.73,4.15-22.87,4.15c-26.39,0-44.98-19.42-44.98-43.38
		c0-23.83,18.35-43.38,44.72-43.38c8.94,0,14.8,1.58,21.52,4.02v11.49c-5.98-4.99-12.82-6.71-21.14-6.71
		c-20.41,0-34.96,15.39-34.96,34.59c0,19.3,14.92,34.69,34.83,34.69c5.5,0,10.52-0.74,13.32-2.44v-13.8
		c0-8.56-0.24-11.73-0.48-15.39h10.51c-0.25,3.65-0.48,7.06-0.48,15.39V1118.55z"/>
        <path class="st0" d="M515.93,1045.72v26.63h9.65c8.32,0,15.28-0.12,19.07-0.37v9.04c-3.79-0.24-10.75-0.35-19.07-0.35h-9.65v32.25
		h10.75c8.43,0,16.98-0.13,20.65-0.36v9.02c-3.67-0.24-12.22-0.37-20.65-0.37h-21.14c0.22-6.71,0.48-16.36,0.48-21.87v-40.09
		c0-8.43-0.25-18.08-0.48-21.74h20.16c8.43,0,16.86-0.24,20.66-0.48v9.16c-3.8-0.37-12.23-0.49-20.66-0.49H515.93z M534.26,1017.72
		h11.85l-17.84,13.69h-9.65L534.26,1017.72z"/>
        <path class="st0" d="M626.61,1121.22h-10.4c0.25-3.41,0.51-11.24,0.51-17.69v-44.24c0-7.35-0.26-17-0.51-23.59h2.35
		c3.64,4.51,5.84,6.96,10,11.61l45.22,53.76v-41.66c0-6.98-0.24-16.75-0.37-21.89h10.27c-0.26,5.38-0.37,15.15-0.37,21.89v45.57
		c0,5.14,0,10.63,0.37,17.72h-2.21c-3.05-3.93-5.13-6.36-9.04-10.89l-46.08-54.73l-0.23,46.54
		C626.12,1109.98,626.35,1117.82,626.61,1121.22"/>
        <path class="st0" d="M768.57,1045.72v26.63h9.65c8.3,0,15.27-0.12,19.06-0.37v9.04c-3.8-0.24-10.76-0.35-19.06-0.35h-9.65v32.25
		h10.75c8.44,0,16.98-0.13,20.64-0.36v9.02c-3.66-0.24-12.2-0.37-20.64-0.37h-21.14c0.25-6.71,0.48-16.36,0.48-21.87v-40.09
		c0-8.43-0.24-18.08-0.48-21.74h20.16c8.43,0,16.84-0.24,20.64-0.48v9.16c-3.8-0.37-12.21-0.49-20.64-0.49H768.57z M786.89,1017.72
		h11.86l-17.84,13.69h-9.66L786.89,1017.72z"/>
        <path class="st0" d="M879.37,1100.08c0,8.3,0.13,17.37,0.48,21.14h-10.88c0.38-3.78,0.5-12.84,0.5-21.14v-40.69
		c0-8.29-0.11-18.2-0.5-21.87h17.46c18.6,0,28.74,10.28,28.74,24.44c0,13.08-8.07,19.93-16.5,22.62
		c8.91,11.01,19.29,27.5,28.94,36.64h-13.54c-6.84-8.79-16.98-22.73-24.09-34.94c-1.46,0.24-2.69,0.24-4.02,0.24h-6.6V1100.08z
		 M879.37,1079.21h7.93c10.29,0,17.73-6.86,17.73-17c0-8.67-6.24-16.73-18.94-16.73h-6.73V1079.21z"/>
        <path class="st0" d="M1028.06,1036.05c24.2,0,43.26,19.45,43.26,43.26c0,23.98-19.07,43.38-43.26,43.38
		c-24.2,0-43.26-19.41-43.26-43.38C984.79,1055.5,1003.86,1036.05,1028.06,1036.05 M1028.06,1114.14
		c18.33,0,33.11-15.51,33.11-34.83c0-19.18-14.78-34.7-33.11-34.7c-18.33,0-33.12,15.52-33.12,34.7
		C994.94,1098.63,1009.73,1114.14,1028.06,1114.14"/>
        <path class="st0" d="M1181.24,1099.23c0,14.06-10.25,23.84-25.28,23.84c-7.95,0-12.69-2.08-19.07-3.05v-13.95
		c3.06,5.14,11.01,9.05,19.31,9.05c9.05,0,14.42-6.1,14.42-14.67c0-18.08-31.17-17.96-31.17-42.13c0-14.31,10.14-22.51,24.2-22.51
		c6.35,0,10.27,1.71,15.4,2.34v13.17c-2.2-5.37-8.3-7.81-15.4-7.81c-8.18,0-14.05,4.9-14.05,13.55
		C1149.6,1074.68,1181.24,1075.03,1181.24,1099.23"/>
        <path class="st0" d="M1261.39,1099.36c0,8.3,0.24,18.09,0.5,21.87H1251c0.25-3.78,0.5-13.57,0.5-21.87v-39.97
		c0-8.29-0.24-18.2-0.5-21.87h10.89c-0.25,3.66-0.5,13.57-0.5,21.87V1099.36z"/>
        <path class="st0" d="M1376.23,1037.53c8.43,0,17.37-0.11,21.14-0.38v9.06c-3.77-0.25-12.71-0.49-21.14-0.49h-8.56
		c-0.11,4.51-0.11,10.74-0.11,15.75v37.88c0,8.32,0.11,18.09,0.49,21.87h-10.89c0.24-3.78,0.37-13.55,0.37-21.87v-37.88
		c0-5.01-0.13-11.24-0.37-15.75h-8.43c-8.3,0-17.11,0.23-20.91,0.49v-9.06c3.8,0.26,12.61,0.38,20.91,0.38H1376.23z"/>
        <path class="st0" d="M1472.61,1045.72v26.63h9.65c8.32,0,15.29-0.12,19.07-0.37v9.04c-3.79-0.24-10.75-0.35-19.07-0.35h-9.65v32.25
		h10.74c8.43,0,17-0.13,20.66-0.36v9.02c-3.66-0.24-12.23-0.37-20.66-0.37h-21.13c0.26-6.71,0.5-16.36,0.5-21.87v-40.09
		c0-8.43-0.24-18.08-0.5-21.74h20.17c8.42,0,16.86-0.24,20.65-0.48v9.16c-3.8-0.37-12.23-0.49-20.65-0.49H1472.61z M1490.94,1017.72
		h11.85l-17.85,13.69h-9.63L1490.94,1017.72z"/>
        <path class="st0" d="M1665.4,1045.72v26.63h9.64c8.32,0,15.27-0.1,19.07-0.37v9.04c-3.8-0.24-10.75-0.35-19.07-0.35h-9.64v32.25
		h10.75c8.43,0,16.98-0.13,20.64-0.36v9.02c-3.66-0.23-12.21-0.37-20.64-0.37H1655c0.25-6.71,0.48-16.36,0.48-21.87v-40.07
		c0-8.45-0.23-18.11-0.48-21.76h20.16c8.44,0,16.87-0.25,20.65-0.48v9.16c-3.79-0.37-12.21-0.49-20.65-0.49H1665.4z"/>
        <path class="st0" d="M1776.08,1121.22h-10.38c0.23-3.41,0.47-11.24,0.47-17.69v-44.24c0-7.35-0.23-17-0.47-23.59h2.3
		c3.68,4.51,5.88,6.96,10.04,11.61l45.2,53.76v-41.66c0-6.98-0.22-16.75-0.37-21.89h10.29c-0.25,5.38-0.38,15.15-0.38,21.89v45.57
		c0,5.14,0,10.63,0.38,17.72h-2.2c-3.06-3.93-5.13-6.36-9.04-10.89l-46.07-54.73l-0.25,46.54
		C1775.59,1109.98,1775.85,1117.82,1776.08,1121.22"/>
        <path class="st0" d="M2044.6,1121.22c-1.22-3.55-3.16-8.3-5.51-13.79l-6.09-14.55h-31.9l-5.99,14.3
		c-2.69,6.48-4.41,10.74-5.37,14.04h-11.24c2.8-5.24,5.97-11.72,8.79-18.57l28.86-66.71h2.81l29.18,66.71
		c3.07,6.85,6.36,13.57,9.19,18.57H2044.6z M2017,1053.9l-12.59,30.79h25.17L2017,1053.9z"/>
        <path class="st0" d="M2162.27,1113.9c8.77,0,16.6-2.08,22.08-6.84v11.49c-7.19,2.2-13.56,4.01-22.83,4.01
		c-25.42,0-44.73-19.42-44.73-43.25c0-23.96,19.31-43.36,44.73-43.36c9.9,0,15.64,2.32,21.99,3.78v11.73
		c-5.74-4.76-13.08-6.61-21.38-6.61c-19.55,0-35.19,15.42-35.19,34.47C2126.94,1098.38,2142.58,1113.9,2162.27,1113.9"/>
        <path class="st0" d="M2295.65,1037.53c8.43,0,17.36-0.11,21.14-0.38v9.06c-3.79-0.25-12.71-0.49-21.14-0.49h-8.54
		c-0.12,4.51-0.12,10.74-0.12,15.75v37.88c0,8.32,0.12,18.09,0.48,21.87h-10.87c0.25-3.78,0.37-13.55,0.37-21.87v-37.88
		c0-5.01-0.12-11.24-0.37-15.75h-8.45c-8.29,0-17.09,0.23-20.89,0.49v-9.06c3.8,0.26,12.59,0.38,20.89,0.38H2295.65z"/>
        <path class="st0" d="M2392.53,1099.36c0,8.3,0.24,18.09,0.48,21.87h-10.88c0.27-3.78,0.5-13.57,0.5-21.87v-39.97
		c0-8.29-0.23-18.2-0.5-21.87h10.88c-0.24,3.66-0.48,13.57-0.48,21.87V1099.36z"/>
        <path class="st0" d="M2507.24,1036.05c24.19,0,43.25,19.45,43.25,43.26c0,23.98-19.06,43.38-43.25,43.38
		c-24.21,0-43.26-19.41-43.26-43.38C2463.98,1055.5,2483.03,1036.05,2507.24,1036.05 M2507.24,1114.14
		c18.32,0,33.11-15.51,33.11-34.83c0-19.18-14.79-34.7-33.11-34.7c-18.31,0-33.12,15.52-33.12,34.7
		C2474.13,1098.63,2488.93,1114.14,2507.24,1114.14"/>
        <path class="st0" d="M2631.25,1121.22h-10.42c0.26-3.41,0.5-11.24,0.5-17.69v-44.24c0-7.35-0.24-17-0.5-23.59h2.34
		c3.67,4.51,5.88,6.96,10.02,11.61l45.21,53.76v-41.66c0-6.98-0.23-16.75-0.38-21.89h10.29c-0.24,5.38-0.37,15.15-0.37,21.89v45.57
		c0,5.14,0,10.63,0.37,17.72h-2.19c-3.06-3.93-5.14-6.36-9.06-10.89l-46.06-54.73l-0.26,46.54
		C2630.74,1109.98,2631,1117.82,2631.25,1121.22"/>
        <path class="st0" d="M2802.16,1099.23c0,14.06-10.25,23.84-25.28,23.84c-7.95,0-12.73-2.08-19.08-3.05v-13.95
		c3.06,5.14,10.99,9.05,19.3,9.05c9.05,0,14.42-6.1,14.42-14.67c0-18.08-31.16-17.96-31.16-42.13c0-14.31,10.15-22.51,24.21-22.51
		c6.35,0,10.25,1.71,15.41,2.34v13.17c-2.21-5.37-8.33-7.81-15.41-7.81c-8.19,0-14.06,4.9-14.06,13.55
		C2770.51,1074.68,2802.16,1075.03,2802.16,1099.23"/>
        <path class="st1" d="M1096.47,548.76h34.71c19.62,0,37.54-0.31,46.2-0.89v21.97c-8.65-0.57-26.57-1.16-46.2-1.16h-59.28
		c0.58-15.88,1.13-38.73,1.13-51.73v-94.52c0-19.94-0.55-43.05-1.13-51.73h25.44c-0.3,8.68-0.87,31.79-0.87,51.73V548.76z"/>
        <path class="st1" d="M1236.14,390.06v63h22.85c19.65,0,36.1-0.27,45.07-0.87v21.41c-8.97-0.58-25.43-0.9-45.07-0.9h-22.85v76.32
		h25.44c19.96,0,40.16-0.27,48.84-0.84v21.39c-8.68-0.59-28.89-0.9-48.84-0.9h-50.02c0.6-15.88,1.18-38.72,1.18-51.73v-94.79
		c0-19.96-0.58-42.79-1.18-51.46h47.7c19.96,0,39.89-0.58,48.87-1.14v21.65c-8.98-0.85-28.91-1.14-48.87-1.14H1236.14z"/>
        <path class="st1" d="M1408.64,516.95v-94.52c0-19.94-0.55-43.05-1.13-51.73h49.45c19.93,0,38.13-0.58,47.1-1.14v21.65
		c-8.97-0.85-27.17-1.16-47.1-1.16h-24.88v68.81h24.88c17.89,0,30.03-0.57,38.73-1.16v21.97c-8.7-0.85-20.85-1.15-38.73-1.15h-24.88
		v38.45c0,19.67,0.56,42.79,0.87,51.73h-25.45C1408.09,559.74,1408.64,536.62,1408.64,516.95"/>
        <path class="st1" d="M1637.94,367.24c57.23,0,102.35,45.94,102.35,102.32c0,56.65-45.12,102.6-102.35,102.6
		c-57.2,0-102.32-45.96-102.32-102.6C1535.62,413.18,1580.74,367.24,1637.94,367.24 M1637.94,551.92
		c43.36,0,78.35-36.71,78.35-82.37c0-45.39-34.99-82.08-78.35-82.08c-43.33,0-78.32,36.68-78.32,82.08
		C1559.62,515.21,1594.61,551.92,1637.94,551.92"/>
        <path class="st1" d="M1801.23,568.68h-24.57c0.6-8.1,1.15-26.58,1.15-41.91v-104.6c0-17.36-0.55-40.2-1.15-55.81h5.5
		c8.65,10.71,13.85,16.5,23.68,27.49l106.97,127.15v-98.56c0-16.47-0.58-39.58-0.87-51.73h24.26c-0.58,12.71-0.88,35.85-0.88,51.73
		v107.81c0,12.16,0,25.15,0.88,41.93h-5.16c-7.26-9.25-12.16-15.03-21.43-25.71l-108.97-129.49l-0.58,110.11
		C1800.07,542.1,1800.65,560.58,1801.23,568.68"/>
        <path class="st1" d="M1979.74,568.68c0.88-8.94,1.43-32.06,1.43-51.74v-94.49c0-19.67-0.55-43.07-1.43-51.75h55.77
		c54.63,0,99.41,44.2,99.41,98.86c0,54.62-44.78,99.12-99.41,99.12H1979.74z M2004.59,549.33h29.48c42.78,0,76.89-36.41,76.89-79.78
		c0-43.35-34.11-79.49-77.17-79.49h-29.2V549.33z"/>
        <path class="st1" d="M2265.68,516.66c0,33.24-24.29,56.37-59.85,56.37c-18.76,0-30.04-4.93-45.07-7.22v-32.97
		c7.22,12.16,26.02,21.39,45.64,21.39c21.42,0,34.14-14.46,34.14-34.67c0-42.82-73.72-42.49-73.72-99.71c0-33.85,24-53.2,57.23-53.2
		c15.04,0,24.29,4.04,36.42,5.49v31.2c-5.17-12.72-19.63-18.5-36.42-18.5c-19.37,0-33.23,11.57-33.23,32.11
		C2190.82,458.58,2265.68,459.41,2265.68,516.66"/>
        <path class="st1" d="M2606.31,390.06v63h22.86c19.63,0,36.12-0.27,45.09-0.87v21.41c-8.97-0.58-25.46-0.9-45.09-0.9h-22.86v76.32
		h25.43c19.96,0,40.2-0.27,48.89-0.84v21.39c-8.69-0.59-28.94-0.9-48.89-0.9h-49.99c0.58-15.88,1.14-38.72,1.14-51.73v-94.79
		c0-19.96-0.56-42.79-1.14-51.46h47.68c19.98,0,39.9-0.58,48.85-1.14v21.65c-8.95-0.85-28.88-1.14-48.85-1.14H2606.31z"/>
        <path class="st1" d="M2822.29,516.66c0,33.24-24.27,56.37-59.83,56.37c-18.78,0-30.06-4.93-45.06-7.22v-32.97
		c7.18,12.16,25.99,21.39,45.65,21.39c21.4,0,34.1-14.46,34.1-34.67c0-42.82-73.72-42.49-73.72-99.71c0-33.85,24.01-53.2,57.22-53.2
		c15.04,0,24.29,4.04,36.46,5.49v31.2c-5.26-12.72-19.67-18.5-36.46-18.5c-19.33,0-33.21,11.57-33.21,32.11
		C2747.44,458.58,2822.29,459.41,2822.29,516.66"/>
        <path class="st1" d="M1099.15,811.85c0,22.54,0.67,49.05,1.33,59.31h-29.17c0.67-10.26,0.99-36.77,0.99-59.31v-115
		c0-22.53-0.32-42.75-0.99-52.71h50.7c47.07,0,74.58,29.51,74.58,68.93c0,39.45-30.5,68.95-75.23,68.95h-22.21V811.85z
		 M1099.15,761.5h20.22c29.83,0,50.05-24.21,50.05-48.75c0-25.51-18.22-47.72-50.39-47.72h-19.88V761.5z"/>
        <path class="st1" d="M1247.95,737.95h123.93v-34.48c0-18.89,0-45.4-0.98-59.31h29.16c-0.65,14.56-1.32,41.1-1.32,59.31v120
		c0,17.2,0.66,38.41,1.32,47.71h-29.16c0.67-9.31,0.98-30.51,0.98-48.07v-62.96h-123.93v63.32c0,17.2,0.65,38.41,1.32,47.71h-29.12
		c0.64-9.31,0.98-30.51,0.98-48.07V703.47c0-23.54-0.34-50.35-0.98-59.31h29.12c-0.67,8.96-1.32,35.77-1.32,59.31V737.95z"/>
        <path class="st1" d="M1593.94,871.16c-3.33-9.61-8.62-22.53-14.92-37.43l-16.56-39.45h-86.52l-16.21,38.78
		c-7.32,17.54-11.95,29.17-14.62,38.09h-30.46c7.6-14.23,16.22-31.81,23.83-50.36l78.22-180.97h7.63l79.21,180.97
		c8.27,18.55,17.23,36.79,24.85,50.36H1593.94z M1519.04,688.57l-34.14,83.5h68.28L1519.04,688.57z"/>
        <path class="st1" d="M1670.15,813.85c0,22.54,0.32,47.05,1.33,57.31h-29.5c0.98-10.26,1.31-34.77,1.31-57.31V703.47
		c0-22.56-0.33-49.37-1.31-59.31h47.38c50.36,0,77.88,27.83,77.88,66.26c0,35.48-21.86,54.01-44.75,61.34
		c24.2,29.81,52.37,74.54,78.57,99.4h-36.78c-18.58-23.86-46.09-61.63-65.29-94.79c-4,0.67-7.3,0.67-10.97,0.67h-17.87V813.85z
		 M1670.15,757.15h21.54c27.83,0,48.04-18.55,48.04-46.08c0-23.51-16.89-45.38-51.34-45.38h-18.23V757.15z"/>
        <path class="st1" d="M2053.22,818.15c2.66,23.53,4.64,37.47,7.95,53.04h-31.48c0-10.63-1.02-22.88-2.99-45.08l-11.26-121.3
		l-74.23,169.35h-6.64l-73.25-169.03l-14.58,118.34c-2.31,19.53-3.98,35.11-4.31,47.71h-28.82c2.31-10.63,5.95-35.81,9.26-60
		l23.87-171.35h6.96l85.84,189.25l86.85-189.25h7.59L2053.22,818.15z"/>
        <path class="st1" d="M2253.99,871.16c-3.33-9.61-8.61-22.53-14.92-37.43l-16.56-39.45h-86.49l-16.26,38.78
		c-7.26,17.54-11.93,29.17-14.58,38.09h-30.48c7.61-14.23,16.23-31.81,23.85-50.36l78.23-180.97h7.61l79.21,180.97
		c8.3,18.55,17.23,36.79,24.86,50.36H2253.99z M2179.08,688.57l-34.12,83.5h68.26L2179.08,688.57z"/>
        <path class="st1" d="M2410.73,851.28c23.9,0,45.1-5.62,59.99-18.54v31.14c-19.55,5.97-36.79,10.94-61.95,10.94
		c-68.97,0-121.3-52.69-121.3-117.32c0-64.95,52.32-117.67,121.3-117.67c26.81,0,42.41,6.32,59.64,10.29v31.81
		c-15.59-12.93-35.49-17.88-58-17.88c-53.03,0-95.45,41.76-95.45,93.45C2314.95,809.19,2357.38,851.28,2410.73,851.28"/>
        <path class="st1" d="M2522.42,811.85c0,22.54,0.64,49.05,1.33,59.31h-29.52c0.67-10.26,1.35-36.77,1.35-59.31V703.46
		c0-22.55-0.67-49.36-1.35-59.3h29.52c-0.68,9.94-1.33,36.75-1.33,59.3V811.85z"/>
        <path class="st1" d="M2592.68,666.36v72.26h26.17c22.54,0,41.43-0.35,51.71-1.02v24.53c-10.28-0.63-29.17-0.99-51.71-0.99h-26.17
		v87.49h29.15c22.87,0,46.08-0.33,56.04-0.98v24.5c-9.96-0.64-33.17-0.99-56.04-0.99h-57.33c0.67-18.22,1.34-44.4,1.34-59.31V703.15
		c0-22.89-0.66-49.05-1.34-59.01h54.7c22.86,0,45.7-0.65,55.97-1.31v24.83c-10.27-0.98-33.11-1.3-55.97-1.3H2592.68z"/>
        <path class="st1" d="M2815.71,811.52c0,38.1-27.85,64.65-68.6,64.65c-21.54,0-34.47-5.66-51.71-8.32v-37.78
		c8.32,13.96,29.84,24.55,52.35,24.55c24.53,0,39.13-16.59,39.13-39.77c0-49.06-84.5-48.73-84.5-114.36
		c0-38.75,27.49-60.97,65.61-60.97c17.21,0,27.83,4.65,41.76,6.31v35.78c-5.97-14.58-22.54-21.21-41.76-21.21
		c-22.22,0-38.12,13.26-38.12,36.79C2729.87,744.89,2815.71,745.9,2815.71,811.52"/>
        <path class="st0" d="M918.97,461.22c-1.02-1.07-30.29-33.88-83.53-37.08l49.86-37.75c2.59-1.97,4.32-4.92,4.73-8.16
		c0.45-3.26-0.45-6.53-2.46-9.12c-1.12-1.61-26.77-33.22-81.72-33.17c-16.11,0-34.48,2.72-55.19,9.46
		c-7.07-7.59-31.12-29.2-74.25-29.24c-37.99,0-88.75,16.81-153.57,70.82c-25.87,21.54-100.41,85.19-100.44,85.21l-19.75,16.89
		l25.57,4.5c0,0,0.53,0.08,2.13,0.45c11.17,2.67,63.62,17.56,117.94,74.95c47.68,50.43,56.28,102.81,56.32,135.33
		c0.03,9.32-0.72,16.87-1.44,22.22l25.94-18.89c0.03-1.09,0.03-2.21,0.03-3.34c0-8.75-0.61-18.8-2.17-29.75l0.29,0.35
		c0.06-0.04,17.35-14.16,41.46-32.63c24.08-18.49,54.96-41.25,81.47-58.1c25.36-16.14,49.1-21.23,69.93-21.26
		c20.36,0,37.9,5.04,50.28,10.12c0.9,0.35,1.81,0.75,2.65,1.11c-27.89,19.65-87.83,62.04-150.48,107.74
		c-42.97,31.31-87.22,64.2-123.34,92.4c-36.28,28.42-63.81,51.2-75.69,65.46c-16.43,20.04-21.25,43.71-21.22,64.24
		c0.05,12.29,1.69,23.67,3.75,33.12l21.97-16c-0.74-5.44-1.22-11.23-1.22-17.12c0.02-16.96,3.87-34.34,15.64-48.68
		c8.26-10.21,36.21-34,71.82-61.7c53.67-41.87,126.05-94.64,184.88-136.89c58.86-42.24,104.14-73.89,104.27-73.97
		c3.29-2.29,5.21-6,5.21-10.02c0-4-1.93-7.74-5.21-10.06c-1.02-0.61-29.15-20.29-71.41-23.71l84.83-59.58
		c2.86-2.01,4.72-5.11,5.14-8.6C922.4,467.32,921.29,463.85,918.97,461.22 M455.43,476.22c23.62-20.13,65.26-55.55,83.1-70.44
		c62.08-51.69,107.38-65.14,137.88-65.14c20.44,0.04,34.75,5.95,44.17,11.73c1.63,0.98,3.04,2,4.38,3
		c-21.63,9.64-45.47,23.4-71.63,42.54c-70.67,51.64-129.62,101.9-138.72,109.73C491.11,491.34,470.25,481.71,455.43,476.22
		 M566.07,552.11c-10.61-11.21-21.19-20.92-31.48-29.36c6.53-5.55,18.88-15.95,35.43-29.43c25.14-20.49,59.81-47.91,97.74-75.63
		c61.55-45,106.84-57.26,138.07-57.26c22.61,0,38.25,6.35,48.4,12.46c1.62,0.97,3.13,1.95,4.46,2.91l-68.35,51.71
		c-0.65,0.49-1.2,1.02-1.7,1.57c-21.43,5.71-44.89,16.45-70.05,34.23c-28.73,20.27-132.14,98.31-139.47,103.84
		C575.05,562.13,570.79,557.11,566.07,552.11 M783.59,543.03c-15.03,3.88-30.74,10.37-46.59,20.45
		c-42.79,27.28-94.54,67.88-115.62,84.69c-5.34-19.24-14.05-40.08-27.81-61.23c1.33-1.01,28.19-21.29,58.65-44.09
		c31.18-23.37,66.17-49.4,80.52-59.53c38.19-26.88,69.72-34.98,94.75-35.03c23.8,0,42.17,7.48,54.69,14.93
		c2.93,1.75,5.52,3.46,7.77,5.1L783.59,543.03z M303.86,511.94c-3.84-11.76-12.88-35.78-29.83-61.13
		c-23.39-35.08-63.21-73.32-125.18-81.18c-8.68-1.08-16.81-1.57-24.38-1.57c-62.63-0.21-87.05,34.74-88.14,36.92
		c-3.06,4.81-2.39,11.12,1.59,15.19c0.07,0.04,23.77,24.12,48.21,51.79c12.22,13.8,24.58,28.45,34.08,41.2
		c9.52,12.43,16.02,24.2,16.3,27.08c2.12,9.62,2.83,33.85,4.89,62.93c2.11,29.32,5.84,64.3,15.03,98.81
		c8.5,31.94,16.74,56.3,29.62,77.76c12.85,21.49,30.21,39.35,55.29,58.11c25.75,19.1,57.03,28.43,85.48,33l29.17-21.22
		c-31.75-2.4-72.22-10.28-99.95-31.37c-23.56-17.69-37.99-32.88-49.02-51.11c-10.95-18.23-18.61-40.26-26.91-71.47
		c-8.59-32.11-12.21-65.63-14.27-94.27c-2.12-28.82-2.43-51.8-5.35-66.21c-2.75-11.59-10.5-22.76-20.64-36.67
		c-23.2-31.1-60.08-70.26-76.31-87.16c8.78-7.59,27.26-18.72,60.94-18.84c6.5,0,13.6,0.43,21.29,1.39
		c52.98,6.79,86.62,38.89,107.96,70.52c10.52,15.75,17.79,31.21,22.34,42.66c2.28,5.73,3.87,10.44,4.89,13.66
		c1.04,3.2,1.4,4.76,1.43,4.77c1.2,4.86,5.3,8.47,10.23,9.12c0.03,0,0.61,0.06,2.32,0.42c12.09,2.36,66.21,15.84,104.74,71.92
		c23.43,34.06,28.41,61.38,28.46,79.46c0,7.98-0.99,14.11-1.98,18.24l26.48-19.29c-0.17-22.74-7.09-55.14-32.78-92.34
		C379.17,534.27,324.2,516.66,303.86,511.94 M375.82,265.8l25.42,4.43c3.03,0.51,5.62,3.45,5.77,6.49l1.36,25.76
		c0.17,3.05,1.46,3.34,2.89,0.64l12.06-22.82c1.43-2.69,5.03-4.27,7.98-3.44l24.9,6.62c2.97,0.8,3.64-0.36,1.53-2.56l-18-18.47
		c-2.15-2.21-2.51-6.11-0.85-8.69l14.04-21.6c1.66-2.6,0.79-3.6-1.97-2.22l-23.13,11.36c-2.75,1.37-6.58,0.51-8.51-1.86
		l-16.23-20.05c-1.94-2.37-3.13-1.85-2.69,1.2l3.64,25.52c0.44,3.02-1.53,6.4-4.38,7.49l-24.11,9.24
		C372.66,263.99,372.78,265.3,375.82,265.8 M460.55,162.59l35.12,11.94c1.16,0.41,1.92,1.73,1.67,2.92L490,213.32
		c-0.25,1.2,0.17,1.39,0.95,0.42l22.71-29.14c0.78-0.97,2.3-1.29,3.39-0.69l32.45,17.64c1.09,0.59,1.39,0.25,0.69-0.78l-21.05-29.94
		c-0.69-1-0.53-2.51,0.38-3.37l27.43-24.94c0.93-0.84,0.68-1.24-0.53-0.87l-35.73,10.58c-1.2,0.37-2.62-0.25-3.13-1.35l-15.52-33.06
		c-0.53-1.12-0.97-1.02-1,0.2l-1.02,36.5c-0.06,1.24-1.1,2.36-2.34,2.52l-37,4.52C459.4,161.73,459.38,162.19,460.55,162.59
		 M567.83,71.43l50.81,28.51c1.66,0.94,2.37,3.09,1.57,4.81l-24.35,52.92c-0.78,1.75-0.3,2.1,1.09,0.81l42.81-39.51
		c1.4-1.29,3.68-1.29,5.09,0l42.82,39.51c1.37,1.3,1.88,0.95,1.06-0.81l-24.33-52.92c-0.8-1.71-0.09-3.87,1.56-4.81l50.81-28.51
		c1.66-0.94,1.47-1.51-0.42-1.29l-57.84,6.8c-1.89,0.22-3.73-1.12-4.11-2.99l-11.41-57.12c-0.38-1.87-0.99-1.87-1.36,0l-11.42,57.12
		c-0.37,1.87-2.21,3.21-4.11,2.99l-57.84-6.8C566.37,69.92,566.19,70.5,567.83,71.43"/>
        <path class="st0" d="M314.21,375.61l21.96,3.79c2.64,0.47,4.86,2.98,5.02,5.62l1.19,22.25c0.13,2.63,1.23,2.89,2.48,0.57
		l10.41-19.72c1.22-2.34,4.36-3.7,6.9-2.99l21.53,5.72c2.57,0.69,3.13-0.29,1.32-2.19l-15.56-15.98c-1.87-1.92-2.18-5.29-0.73-7.5
		l12.14-18.7c1.41-2.22,0.66-3.1-1.69-1.91l-20.03,9.8c-2.37,1.18-5.67,0.45-7.35-1.6l-14.04-17.33c-1.67-2.04-2.7-1.59-2.34,1.06
		l3.17,22.02c0.38,2.65-1.32,5.56-3.81,6.51l-20.83,8C311.49,374.02,311.62,375.16,314.21,375.61"/>
</g>
    <path class="st0" d="M2391.89,570.37c3.18,2.15,7.1,2.91,11.04,2.14l56.15-10.88c28.88-5.59,53.12-20.48,68.25-41.92
	c14.83-21.01,20.19-47.1,15.08-73.45l-0.11-0.56c-10.67-55.1-61.26-86.79-120.26-75.38l-56.17,10.89c-3.94,0.76-7.29,2.93-9.44,6.1
	c-2.14,3.17-2.91,7.09-2.14,11.03l2.13,10.99l70.53-13.67c20.97-4.07,40.32-0.63,55.95,9.92c15.13,10.22,25.57,26.74,29.4,46.51
	l0.11,0.65c3.81,19.64,0.26,38.77-9.99,53.76c-10.55,15.42-27.24,25.72-48.24,29.79l-42.09,8.15l-20.02-103.4l-28.43,5.58
	l22.13,114.31C2386.54,564.88,2388.71,568.22,2391.89,570.37z"/>
</svg>
