<?xml version="1.0" encoding="UTF-8" standalone="no"?>
<!-- Created with Inkscape (http://www.inkscape.org/) -->

<svg
    xmlns:dc="http://purl.org/dc/elements/1.1/"
    xmlns:cc="http://creativecommons.org/ns#"
    xmlns:rdf="http://www.w3.org/1999/02/22-rdf-syntax-ns#"
    xmlns:sodipodi="http://sodipodi.sourceforge.net/DTD/sodipodi-0.dtd"
    xmlns:inkscape="http://www.inkscape.org/namespaces/inkscape"
    xmlns="http://www.w3.org/2000/svg"
    width="650px"
    height="100px"
    viewBox="0 0 650 100"
    version="1.1"
    id="SVGRoot"
    inkscape:version="0.92.4 (5da689c313, 2019-01-14)"
    sodipodi:docname="logo-pg-pharmodel.svg">
    <defs
        id="defs3985"/>
    <sodipodi:namedview
        id="base"
        pagecolor="#ffffff"
        bordercolor="#666666"
        borderopacity="1.0"
        inkscape:pageopacity="0.0"
        inkscape:pageshadow="2"
        inkscape:zoom="8.9117211"
        inkscape:cx="619.95898"
        inkscape:cy="43.085277"
        inkscape:document-units="px"
        inkscape:current-layer="layer1"
        showgrid="false"
        inkscape:window-width="1920"
        inkscape:window-height="1017"
        inkscape:window-x="-8"
        inkscape:window-y="-8"
        inkscape:window-maximized="1"/>
    <metadata
        id="metadata3988">
        <rdf:RDF>
            <cc:Work
                rdf:about="">
                <dc:format>image/svg+xml</dc:format>
                <dc:type
                    rdf:resource="http://purl.org/dc/dcmitype/StillImage"/>
                <dc:title></dc:title>
            </cc:Work>
        </rdf:RDF>
    </metadata>
    <g
        inkscape:label="Calque 1"
        inkscape:groupmode="layer"
        id="layer1">
        <path
            style="fill:#4e5257;stroke-width:1.64665627"
            d="m 167.28321,96.780965 c -17.23318,-7.773902 -18.12865,-28.642418 -1.62615,-37.895871 6.04004,-3.386814 8.98111,-3.876429 22.24002,-3.702333 14.20821,0.18658 15.27955,-0.02823 15.27955,-3.058102 0,-1.7923 -2.25526,-5.499836 -5.01168,-8.238992 -5.43888,-5.404779 -3.01014,-5.208557 -32.15476,-2.597788 -4.29728,0.384968 -4.95553,-0.0982 -4.95553,-3.637677 0,-5.57369 6.87345,-8.599758 21.44148,-9.439713 9.7404,-0.561622 12.77843,-0.05913 18.99086,3.14341 11.67253,6.016495 13.71593,11.144396 14.53341,36.471634 0.78872,24.435056 -0.58691,30.537534 -6.8838,30.537534 -2.21806,0 -4.30832,-0.82131 -4.64505,-1.825134 -0.42604,-1.270153 -2.99688,-1.020569 -8.45459,0.820742 -10.34337,3.489645 -20.17515,3.292105 -28.75376,-0.577728 z M 190.2997,88.44846 c 8.19062,-2.260552 13.18131,-8.730169 12.54432,-16.261678 -0.47791,-5.650794 -0.75951,-5.877577 -9.02856,-7.272016 -17.19302,-2.899296 -27.58853,2.338756 -26.66049,13.433609 0.42373,5.065802 1.45719,6.533723 6.28852,8.93211 6.7063,3.329191 8.56011,3.457632 16.85621,1.167975 z m 43.849,9.783111 c -2.59927,-1.50443 -2.89073,-4.954693 -2.89073,-34.220298 0,-26.879844 0.43002,-32.901791 2.46949,-34.583798 1.99242,-1.643206 3.29474,-1.499316 6.74126,0.744739 3.9358,2.562681 4.78343,2.577953 10.77867,0.19418 8.30807,-3.303389 15.35258,-3.298505 18.11788,0.01243 3.36063,4.023924 -0.0656,7.666218 -9.88041,10.503593 -4.73862,1.36988 -10.42655,4.096802 -12.63984,6.059824 -3.88834,3.448629 -4.02415,4.31721 -4.02415,25.736108 0,17.963201 -0.49229,22.656199 -2.59575,24.746508 -1.42765,1.418714 -2.72849,2.557016 -2.89073,2.529563 -0.16226,-0.02752 -1.5958,-0.802825 -3.18569,-1.723063 z M 416.06552,95.417868 C 395.76053,84.876913 390.28543,57.988776 404.86497,40.412159 c 13.72731,-16.549193 41.12524,-16.90527 55.42548,-0.720322 6.85938,7.763424 9.35676,15.891981 8.49976,27.665443 -0.94186,12.939609 -7.16961,21.979011 -19.38245,28.133181 -11.97687,6.035229 -21.61717,6.014239 -33.34224,-0.07263 z m 29.43885,-10.120241 c 10.68986,-6.477129 14.48177,-21.225854 8.43291,-32.800075 -5.2405,-10.027527 -11.00781,-13.859331 -20.85985,-13.859331 -14.20027,0 -23.42603,9.756705 -23.41427,24.761744 0.0143,19.238291 20.0392,31.472298 35.84121,21.897662 z m 52.512,11.645572 c -14.13735,-6.382197 -21.83155,-20.860011 -20.08543,-37.793835 1.89905,-18.417034 15.63009,-31.396437 33.1612,-31.346006 13.16567,0.03765 19.7495,4.908008 16.83574,12.453617 -0.75225,1.948105 -1.64411,2.063246 -4.44454,0.57391 -5.3516,-2.846129 -17.22957,-2.45324 -22.12108,0.731705 -14.40075,9.376585 -14.44167,34.816317 -0.0702,43.642697 10.34463,6.353234 24.27523,2.781136 30.98808,-7.945937 3.52757,-5.637085 3.77449,-7.981684 4.2967,-40.796284 0.52342,-32.8975845 0.73273,-34.8717761 3.79595,-35.83793563 7.64043,-2.40976957 8.03891,-0.0436839 8.03891,47.73934163 0,24.643087 -0.45116,45.974031 -1.00267,47.402103 -1.3252,3.431653 -8.33076,3.330683 -10.28999,-0.148276 -1.42313,-2.526953 -2.20779,-2.461818 -9.88644,0.820742 -10.1233,4.327649 -20.35567,4.504229 -29.21619,0.504175 z m 85.13338,1.235046 c -23.12089,-9.169619 -30.19979,-39.761119 -13.64754,-58.977514 7.21101,-8.371572 13.98726,-11.421576 25.37584,-11.421576 11.82852,0 20.87937,5.456702 26.71082,16.103741 5.48674,10.017832 6.06697,20.680001 1.26434,23.234176 -1.75731,0.934587 -13.23502,1.699232 -25.50606,1.699232 -12.64216,0 -22.74048,0.69049 -23.30193,1.59329 -1.67795,2.697905 3.97394,11.510435 9.54834,14.888033 7.5826,4.594408 18.18313,4.195748 27.1405,-1.020711 7.7803,-4.530959 12.01054,-4.313783 12.01054,0.6166 0,10.260934 -25.57933,18.843214 -39.59485,13.284729 z m 29.68382,-42.575337 c 0,-14.187387 -17.73534,-22.371846 -30.48692,-14.069068 -4.2403,2.760928 -9.8299,13.38261 -8.32014,15.810243 0.57003,0.917042 9.23212,1.623318 19.90836,1.623318 17.95005,0 18.8987,-0.168875 18.8987,-3.364493 z M 1.0026516,95.766575 C 0.4512102,94.338503 0,74.115567 0,50.826697 0,15.879844 0.41754367,8.1389544 2.3902347,6.5120301 4.0639833,5.1316551 11.36746,4.7023811 26.754926,5.079927 44.207612,5.5081177 50.023202,6.2577402 55.017018,8.7227024 75.706355,18.935016 76.509616,48.484123 56.416967,60.221714 c -6.680038,3.902285 -9.960791,4.598457 -25.031945,5.311622 l -17.344343,0.820742 -0.82592,13.952631 C 12.760475,87.98067 11.78747,95.182685 11.052453,96.311203 9.1507574,99.23108 2.1949366,98.85412 1.0026516,95.766557 Z M 46.914694,51.75411 c 7.360517,-3.056149 10.899809,-8.489252 10.899809,-16.732133 0,-13.7004 -9.604326,-19.340326 -31.38502,-18.430175 l -12.388804,0.517672 -0.467042,18.466702 -0.467025,18.46672 H 27.25442 c 8.36265,0 16.401929,-0.935918 19.660328,-2.288822 z m 36.778671,45.514622 c -0.605676,-0.601896 -1.101221,-22.342829 -1.101221,-48.313214 0,-46.1460517 0.07684,-47.2431385 3.382951,-48.2858869 6.49648,-2.0489692 8.17995,1.7136155 8.17995,18.2823439 0,8.913589 0.678513,15.393133 1.611919,15.393133 0.886552,0 4.045703,-1.47458 7.020326,-3.276841 6.95786,-4.215619 19.93195,-4.353632 27.73406,-0.295044 3.57602,1.860223 7.16317,5.721682 9.47233,10.19674 3.33822,6.469316 3.71406,9.548887 3.69134,30.246042 -0.0143,12.673847 -0.65546,24.031318 -1.42568,25.238822 -0.77022,1.207522 -3.17466,1.946188 -5.3432,1.641502 -3.89472,-0.547274 -3.953,-0.834203 -4.77952,-23.534796 -0.85128,-23.380517 -1.23807,-25.094558 -7.13025,-31.598608 -4.06756,-4.489957 -16.49987,-5.122628 -22.23401,-1.131484 -7.04135,4.901047 -8.617315,10.697258 -8.617315,31.693577 0,10.804798 -0.451228,20.813503 -1.002652,22.241575 -0.997058,2.581966 -7.356156,3.591845 -9.459028,1.502157 z M 280.20256,94.669719 c -0.54782,-2.031336 -1.00619,-16.75195 -1.01861,-32.712476 -0.0189,-24.213068 0.40734,-29.446325 2.57322,-31.598609 3.17603,-3.156124 4.18258,-3.196701 8.13082,-0.327789 2.62572,1.907938 3.92673,1.907938 8.52187,0 8.85462,-3.676495 20.64382,-2.887468 27.67191,1.852019 7.51559,5.068236 7.67531,5.066709 15.36334,-0.146145 5.52683,-3.747491 7.57962,-4.178097 17.36489,-3.64265 12.60296,0.68962 18.11044,3.763757 23.01106,12.844197 2.56472,4.75222 3.05828,9.424281 3.05828,28.949288 0,12.805396 -0.45116,24.450949 -1.00265,25.879021 -1.29976,3.365878 -8.25785,3.365878 -9.5576,0 -0.55146,-1.428072 -1.00265,-11.423813 -1.00265,-22.21279 0,-27.915702 -3.29721,-34.284226 -17.7502,-34.284226 -7.03389,0 -12.76162,4.069953 -15.38784,10.934146 -0.85287,2.229121 -1.56203,13.053559 -1.57595,24.054296 -0.0143,11.000737 -0.65546,20.989304 -1.42568,22.196826 -0.77022,1.207504 -3.17466,1.94617 -5.3432,1.641484 -3.88343,-0.545658 -3.95843,-0.90003 -4.98015,-23.534796 -0.57049,-12.63945 -1.12803,-23.796277 -1.23887,-24.792962 -0.11079,-0.996703 -2.02437,-3.766704 -4.25228,-6.155591 -7.32964,-7.859227 -21.90841,-5.18034 -27.14094,4.987225 -1.05934,2.058434 -1.84518,12.066499 -1.84518,23.499085 0,10.952525 -0.76948,21.342451 -1.70995,23.088723 -2.41984,4.493171 -9.20278,4.157213 -10.46364,-0.518258 z m 360.0974,1.185662 c -0.57002,-1.476905 -1.03692,-22.847822 -1.03692,-47.490909 0,-38.878598 0.34579,-45.0910509 2.61619,-46.963278 1.89859,-1.5657829 3.37122,-1.68442191 5.36855,-0.43248816 C 649.71262,2.5137655 650,7.6456817 650,50.118095 v 47.424194 l -4.33156,0.499133 c -2.82245,0.32525 -4.69282,-0.436377 -5.36848,-2.186094 z"
            id="path45"
            inkscape:connector-curvature="0"/>
    </g>
</svg>
