<?xml version="1.0" encoding="UTF-8" standalone="no"?>
<!-- Created with Inkscape (http://www.inkscape.org/) -->

<svg
    xmlns:dc="http://purl.org/dc/elements/1.1/"
    xmlns:cc="http://creativecommons.org/ns#"
    xmlns:rdf="http://www.w3.org/1999/02/22-rdf-syntax-ns#"
    xmlns:sodipodi="http://sodipodi.sourceforge.net/DTD/sodipodi-0.dtd"
    xmlns:inkscape="http://www.inkscape.org/namespaces/inkscape"
    xmlns="http://www.w3.org/2000/svg"
    width="650px"
    height="136px"
    viewBox="0 0 650 136"
    version="1.1"
    id="SVGRoot"
    inkscape:version="0.92.4 (5da689c313, 2019-01-14)"
    sodipodi:docname="logo-pg-group.svg">
    <defs
        id="defs4067"/>
    <sodipodi:namedview
        id="base"
        pagecolor="#ffffff"
        bordercolor="#666666"
        borderopacity="1.0"
        inkscape:pageopacity="0.0"
        inkscape:pageshadow="2"
        inkscape:zoom="0.78769231"
        inkscape:cx="325"
        inkscape:cy="17.21875"
        inkscape:document-units="px"
        inkscape:current-layer="layer1"
        showgrid="false"
        inkscape:window-width="1920"
        inkscape:window-height="1017"
        inkscape:window-x="-8"
        inkscape:window-y="-8"
        inkscape:window-maximized="1"/>
    <metadata
        id="metadata4070">
        <rdf:RDF>
            <cc:Work
                rdf:about="">
                <dc:format>image/svg+xml</dc:format>
                <dc:type
                    rdf:resource="http://purl.org/dc/dcmitype/StillImage"/>
                <dc:title></dc:title>
            </cc:Work>
        </rdf:RDF>
    </metadata>
    <g
        inkscape:label="Calque 1"
        inkscape:groupmode="layer"
        id="layer1">
        <path
            style="fill:#25b6c0;stroke-width:3.15975356"
            d="M 50.801455,132.73465 C 33.866381,129.60621 19.268067,119.97401 9.2543905,105.32127 -1.4821495,89.610793 -3.1952504,56.91914 5.7924043,39.255184 14.39476,22.348454 31.594109,7.6916933 48.042569,3.2508422 73.156572,-3.5295836 107.70278,6.8405747 109.87166,21.810838 c 1.35752,9.370005 -6.1312,11.7061 -17.924351,5.591471 C 70.039862,16.043483 38.668,24.543912 27.849234,44.770152 9.7561173,78.59614 35.612559,117.01756 73.695342,112.89523 91.5483,110.9627 97.816939,106.74131 97.816939,96.651412 c 0,-14.26791 -3.095479,-17.273019 -17.792305,-17.273019 -15.12375,0 -20.726127,-5.825983 -13.730082,-14.278035 5.542968,-6.696572 41.906698,-6.49756 48.652638,0.266404 7.7074,7.727826 6.78697,42.467398 -1.40173,52.905238 -9.98135,12.72286 -37.644735,19.0994 -62.744005,14.46278 z M 299.56595,127.62846 C 275.61141,115.45217 263.879,96.087851 263.879,68.727245 c 0,-36.992459 24.48457,-64.8712931 59.5325,-67.78544551 55.03248,-4.57581839 90.54061,49.85002451 65.11299,99.80327051 -7.59376,14.9182 -14.21724,20.92203 -32.00723,29.01288 -19.66077,8.94167 -36.40239,8.31569 -56.95131,-2.12949 z m 52.89214,-19.6354 c 43.9235,-26.852859 15.53763,-98.8728229 -33.72725,-85.571993 -27.3553,7.385551 -40.89235,42.378622 -26.89393,69.52041 10.70993,20.765563 40.15671,28.562623 60.62118,16.051583 z m 99.77788,24.84995 c -13.5352,-3.92673 -28.44974,-19.4854 -32.42059,-33.820795 -1.78766,-6.453677 -3.25822,-29.712774 -3.26788,-51.686805 -0.0189,-42.0486394 2.17009,-48.9144948 14.81978,-46.49104085 5.05261,0.96798815 5.86346,6.10647835 7.40572,46.92937285 0.95251,25.213304 2.89962,48.386627 4.32686,51.496272 7.05835,15.378576 37.02305,19.629716 51.35453,7.285766 8.83425,-7.609089 8.85725,-7.733052 10.43157,-56.159923 l 1.57779,-48.5339935 h 9.46672 9.46672 l 0.85955,45.8771065 c 0.79397,42.375934 0.3124,46.963709 -6.31115,60.11487 -11.75436,23.33874 -38.88487,33.35162 -67.70962,24.98917 z m -308.13728,-1.78696 c -1.15705,-1.16012 -2.10372,-15.95739 -2.10372,-32.882847 0,-25.142779 0.91331,-31.124966 4.99145,-32.694058 2.7453,-1.056249 18.36539,-1.920479 34.71131,-1.920479 25.51243,0 30.61333,-0.895838 36.03101,-6.327878 11.64222,-11.673069 6.05662,-29.200563 -10.64493,-33.403509 -3.87642,-0.975505 -14.78218,-1.333568 -24.23503,-0.79573 -16.88726,0.960825 -17.21452,1.16531 -18.76479,11.724008 -1.73452,11.813642 -8.91705,18.24998 -16.92674,15.16824 -4.04625,-1.556816 -5.16228,-6.429662 -5.16228,-22.539807 0,-24.8349854 2.74352,-27.10409605 32.77075,-27.10409605 32.95247,0 50.69954,5.09865935 61.77658,17.74815405 15.34406,17.522227 12.24238,43.700564 -6.82161,57.574816 -8.08902,5.886952 -7.14687,10.527628 5.33308,26.268796 11.6814,14.73396 13.43172,21.33738 7.28845,27.49697 -6.83423,6.85233 -10.89819,4.08227 -29.24364,-19.93282 L 194.97127,85.706271 h -15.44364 -15.44364 v 18.724859 c 0,10.29865 -0.86193,20.97694 -1.9154,23.72954 -1.90469,4.97669 -14.05272,6.9232 -18.0699,2.89538 z m 408.75199,-1.68742 c -2.36917,-2.37545 -3.78669,-14.17783 -3.78669,-31.528083 0,-33.677442 0.6918,-34.281881 39.23723,-34.281881 22.8224,0 28.01221,-0.984966 33.34097,-6.327878 17.14543,-17.190884 -0.0401,-38.051838 -31.23772,-37.91881 -15.55449,0.06632 -18.61706,2.756063 -19.80526,17.394274 -0.94803,11.67889 -1.72626,12.614688 -10.49071,12.614688 -9.42311,0 -9.47108,-0.09239 -10.41333,-20.050863 -0.56933,-12.059043 0.52799,-21.8323626 2.75305,-24.5205211 5.58473,-6.7470273 59.96729,-6.1537223 74.61187,0.8140024 29.05239,13.8228037 30.92964,55.8085727 3.22888,72.2151787 -5.53475,3.278125 -19.37299,6.396441 -33.49472,7.547703 l -24.06345,1.9618 -0.92714,22.93856 c -0.86586,21.42281 -1.39761,22.93856 -8.04672,22.93856 -3.91575,0 -8.82358,-1.70853 -10.90626,-3.79673 z"
            id="path4032"
            inkscape:connector-curvature="0"/>
    </g>
</svg>
